# xmcd
#
# Track frame offsets:
#	150
#	20655
#	39755
#	56048
#	72845
#	85973
#	98418
#	123790
#	141140
#
# Disc length: 2152 seconds
#
# Revision: 2
# Processed by: cddbd v1.5.2PL0 Copyright (c) Steve Scherf et al.
# Submitted via: EZCDAudioConverter 1.3.4.1
#
DISCID=6c086609
DTITLE=Tower Of Power - Bump City
DYEAR=1972
DGENRE=
TTITLE0=You Got To Funkifize
TTITLE1=What Happened To The World That Day?
TTITLE2=Flash In The Pan
TTITLE3=Gone (In Memory Of Jacqueline Mesquite)
TTITLE4=You Strike My Main Nerve
TTITLE5=Down To The Nightclub
TTITLE6=You're Still A Young Man
TTITLE7=Skating On Thin Ice
TTITLE8=Of The Earth
EXTD=
EXTT0=
EXTT1=
EXTT2=
EXTT3=
EXTT4=
EXTT5=
EXTT6=
EXTT7=
EXTT8=
PLAYORDER=
